<svg width="100" height="100" viewBox="0 0 100 100" xmlns="http://www.w3.org/2000/svg">
  <g fill="#fff" stroke="#000" stroke-width="3" stroke-linecap="round" stroke-linejoin="round">
    <!-- Body -->
    <path d="M30 48 Q20 70 24 85 Q27 93 38 93 L62 93 Q73 93 76 85 Q80 70 70 48 Q50 56 30 48 Z"/>

    <!-- Tummy patch between the front legs -->
    <path d="M41.5 67 Q50 63 58.5 67 L58.5 85 Q58.5 92 50 92 Q41.5 92 41.5 85 Z"/>

    <!-- Front paws -->
    <path d="M33 93 Q32 86 38.5 86 Q42 86 41.5 93 Z"/>
    <path d="M67 93 Q68 86 61.5 86 Q58 86 58.5 93 Z"/>

    <!-- Big round back feet -->
    <circle cx="16.5" cy="84" r="12.5"/>
    <circle cx="83.5" cy="84" r="12.5"/>

    <!-- Head -->
    <ellipse cx="50" cy="33" rx="31" ry="27.5"/>

    <!-- Floppy ears (in front of the head) -->
    <path d="M36 7.5 Q17 10 9.5 29 Q5.5 42 12 48.5 Q19 54 26.5 45 Q23.5 24 36 7.5 Z"/>
    <path d="M64 7.5 Q83 10 90.5 29 Q94.5 42 88 48.5 Q81 54 73.5 45 Q76.5 24 64 7.5 Z"/>
  </g>

  <!-- Eyes -->
  <circle cx="36" cy="31" r="4.4" fill="#000"/>
  <circle cx="64" cy="31" r="4.4" fill="#000"/>

  <!-- Nose -->
  <path d="M45.5 39.5 Q50 38 54.5 39.5 Q55.5 43.5 50 46 Q44.5 43.5 45.5 39.5 Z" fill="#000"/>

  <!-- Philtrum + smile -->
  <path d="M50 46 L50 50.5" stroke="#000" stroke-width="2.6" stroke-linecap="round" fill="none"/>
  <path d="M50 50.5 Q43.5 55.5 37.5 50.5" stroke="#000" stroke-width="2.6" stroke-linecap="round" fill="none"/>
  <path d="M50 50.5 Q56.5 55.5 62.5 50.5" stroke="#000" stroke-width="2.6" stroke-linecap="round" fill="none"/>

  <!-- Tongue -->
  <path d="M45.8 52.5 L45.8 54.5 Q45.8 59 50 59 Q54.2 59 54.2 54.5 L54.2 52.5 Q50 55 45.8 52.5 Z" fill="#fff" stroke="#000" stroke-width="2.4" stroke-linejoin="round"/>

  <!-- Paw pads -->
  <g fill="#000" stroke="none">
    <ellipse cx="16.5" cy="87.5" rx="4.4" ry="3.6"/>
    <ellipse cx="9.8" cy="81.5" rx="2" ry="2.4"/>
    <ellipse cx="16.5" cy="78.8" rx="2" ry="2.4"/>
    <ellipse cx="23.2" cy="81.5" rx="2" ry="2.4"/>
    <ellipse cx="83.5" cy="87.5" rx="4.4" ry="3.6"/>
    <ellipse cx="76.8" cy="81.5" rx="2" ry="2.4"/>
    <ellipse cx="83.5" cy="78.8" rx="2" ry="2.4"/>
    <ellipse cx="90.2" cy="81.5" rx="2" ry="2.4"/>
  </g>
</svg>
